<!-- Generated by IcoMoon.io -->
<svg version="1.1" xmlns="http://www.w3.org/2000/svg" width="1024" height="1024" viewBox="0 0 1024 1024">
<title></title>
<g id="icomoon-ignore">
</g>
<path fill="#000" d="M192 307.2c-0.056 0-0.122 0-0.188 0-21.161 0-40.323 8.558-54.214 22.402l0.002-0.002c-13.954 13.907-22.589 33.145-22.589 54.4s8.634 40.493 22.586 54.398l320.002 320.002c13.908 13.953 33.146 22.585 54.4 22.585s40.492-8.633 54.398-22.583l320.002-320.002c13.954-13.907 22.589-33.145 22.589-54.4s-8.634-40.493-22.586-54.398l-0.002-0.002c-13.907-13.954-33.145-22.589-54.4-22.589s-40.493 8.634-54.398 22.586l-265.602 265.602-265.6-265.6c-13.889-13.842-33.051-22.4-54.212-22.4-0.066 0-0.132 0-0.199 0h0.010z"></path>
</svg>
