<svg width="65" height="65" viewBox="0 0 65 65" fill="none" xmlns="http://www.w3.org/2000/svg">
<path d="M38.5938 12.1875H14.2188C13.0975 12.1875 12.1875 13.0975 12.1875 14.2188C12.1875 15.34 13.0975 16.25 14.2188 16.25H38.5938C39.715 16.25 40.625 15.34 40.625 14.2188C40.625 13.0975 39.715 12.1875 38.5938 12.1875Z" fill="#6ABF4B"/>
<path d="M30.4688 20.3125H14.2188C13.0975 20.3125 12.1875 21.2225 12.1875 22.3438C12.1875 23.465 13.0975 24.375 14.2188 24.375H30.4688C31.59 24.375 32.5 23.465 32.5 22.3438C32.5 21.2225 31.59 20.3125 30.4688 20.3125Z" fill="#6ABF4B"/>
<path d="M44.6875 0H8.125C3.64406 0 0 3.64406 0 8.125V48.75C0 49.5381 0.455 50.2572 1.17 50.5903C1.44219 50.7163 1.73875 50.7812 2.03125 50.7812C2.49844 50.7812 2.96156 50.6187 3.33125 50.31L14.9541 40.625H44.6875C49.1684 40.625 52.8125 36.9809 52.8125 32.5V8.125C52.8125 3.64406 49.1684 0 44.6875 0ZM48.75 32.5C48.75 34.7384 46.93 36.5625 44.6875 36.5625H14.2188C13.7434 36.5625 13.2844 36.7291 12.9187 37.0338L4.0625 44.4153V8.125C4.0625 5.88656 5.8825 4.0625 8.125 4.0625H44.6875C46.93 4.0625 48.75 5.88656 48.75 8.125V32.5Z" fill="#6ABF4B"/>
<path d="M56.875 16.25C55.7537 16.25 54.8438 17.16 54.8438 18.2812C54.8438 19.4025 55.7537 20.3125 56.875 20.3125C59.1175 20.3125 60.9375 22.1366 60.9375 24.375V58.7397L54.08 53.2553C53.7225 52.9709 53.2716 52.8125 52.8125 52.8125H24.375C22.1325 52.8125 20.3125 50.9884 20.3125 48.75V46.7188C20.3125 45.5975 19.4025 44.6875 18.2812 44.6875C17.16 44.6875 16.25 45.5975 16.25 46.7188V48.75C16.25 53.2309 19.8941 56.875 24.375 56.875H52.0975L61.6972 64.5572C62.0669 64.8497 62.5178 65 62.9688 65C63.2653 65 63.5659 64.935 63.8503 64.8009C64.5531 64.4597 65 63.7487 65 62.9688V24.375C65 19.8941 61.3559 16.25 56.875 16.25Z" fill="#6ABF4B"/>
</svg>
