<!-- Generated by IcoMoon.io -->
<svg version="1.1" xmlns="http://www.w3.org/2000/svg" width="1024" height="1024" viewBox="0 0 1024 1024">
<title></title>
<g id="icomoon-ignore">
</g>
<path fill="#fff" d="M864 256c-8.857 0.001-16.873 3.601-22.666 9.416l-425.334 425.334-201.333-201.333c-5.795-5.814-13.811-9.412-22.667-9.412s-16.872 3.598-22.666 9.411l-0.001 0.001c-5.789 5.791-9.37 13.79-9.37 22.625s3.581 16.834 9.37 22.625l224 224c5.795 5.814 13.811 9.411 22.667 9.411s16.872-3.597 22.666-9.41l448.001-448.001c5.789-5.791 9.37-13.79 9.37-22.625s-3.581-16.834-9.37-22.625v0c-5.794-5.816-13.81-9.415-22.666-9.417v0z"></path>
</svg>
