<svg width="54" height="54" viewBox="0 0 54 54" fill="none" xmlns="http://www.w3.org/2000/svg">
<path d="M54 27C54 12.1935 41.8064 0 27 0C12.0847 0 0 12.1935 0 27C0 41.9153 12.0847 54 27 54C41.8064 54 54 41.9153 54 27ZM23.8427 41.371C23.1895 42.0242 21.9919 42.0242 21.3387 41.371L10.0161 30.0484C9.3629 29.3952 9.3629 28.1976 10.0161 27.5444L12.5202 25.1492C13.1734 24.3871 14.2621 24.3871 14.9153 25.1492L22.6452 32.7702L38.9758 16.4395C39.629 15.6774 40.7177 15.6774 41.371 16.4395L43.875 18.8347C44.5282 19.4879 44.5282 20.6855 43.875 21.3387L23.8427 41.371Z" fill="#0BD474"/>
</svg>
