<svg width="12" height="12" viewBox="0 0 12 12" fill="none" xmlns="http://www.w3.org/2000/svg">
<path d="M8.26172 5.98264L11.6652 2.57853C11.7698 2.48381 11.8534 2.36821 11.9107 2.2392C11.9679 2.11019 11.9974 1.97062 11.9974 1.82949C11.9974 1.68836 11.9679 1.54879 11.9107 1.41978C11.8534 1.29076 11.7698 1.17517 11.6652 1.08045L10.9163 0.332264C10.8216 0.227641 10.706 0.144021 10.577 0.0867937C10.4481 0.0295662 10.3085 0 10.1674 0C10.0263 0 9.88675 0.0295662 9.75777 0.0867937C9.62878 0.144021 9.51321 0.227641 9.4185 0.332264L6.01757 3.73637L2.57893 0.332264C2.48422 0.227641 2.36865 0.144021 2.23966 0.0867937C2.11067 0.0295662 1.97113 0 1.83002 0C1.68891 0 1.54937 0.0295662 1.42038 0.0867937C1.29139 0.144021 1.17582 0.227641 1.08111 0.332264L0.332205 1.08131C0.2276 1.17603 0.143996 1.29162 0.0867783 1.42063C0.029561 1.54964 0 1.68921 0 1.83035C0 1.97148 0.029561 2.11105 0.0867783 2.24006C0.143996 2.36907 0.2276 2.48466 0.332205 2.57939L3.73571 5.98264L0.332205 9.42103C0.2276 9.51576 0.143996 9.63135 0.0867783 9.76036C0.029561 9.88937 0 10.0289 0 10.1701C0 10.3112 0.029561 10.4508 0.0867783 10.5798C0.143996 10.7088 0.2276 10.8244 0.332205 10.9191L1.08111 11.6682C1.17589 11.7727 1.29149 11.8562 1.42046 11.9133C1.54944 11.9705 1.68895 12 1.83002 12C1.97109 12 2.1106 11.9705 2.23958 11.9133C2.36856 11.8562 2.48415 11.7727 2.57893 11.6682L6.01757 8.26319L9.42107 11.6673C9.51585 11.7718 9.63144 11.8553 9.76042 11.9125C9.8894 11.9696 10.0289 11.9991 10.17 11.9991C10.311 11.9991 10.4506 11.9696 10.5795 11.9125C10.7085 11.8553 10.8241 11.7718 10.9189 11.6673L11.6678 10.9183C11.7724 10.8235 11.856 10.7079 11.9132 10.5789C11.9704 10.4499 12 10.3103 12 10.1692C12 10.0281 11.9704 9.88851 11.9132 9.7595C11.856 9.63049 11.7724 9.5149 11.6678 9.42017L8.26172 5.98264Z" fill="#B0BBC9"/>
</svg>
