<svg width="14" height="10" viewBox="0 0 14 10" fill="none" xmlns="http://www.w3.org/2000/svg">
<path d="M4.7441 9.80371C4.87966 9.9296 5.0611 10 5.24995 10C5.43881 10 5.62025 9.9296 5.75581 9.80371L13.795 2.10733C13.9265 1.97754 14 1.80384 14 1.62304C14 1.44223 13.9265 1.26853 13.795 1.13875L12.8105 0.196279C12.7461 0.134084 12.6694 0.0847189 12.5849 0.0510314C12.5004 0.0173438 12.4098 0 12.3183 0C12.2268 0 12.1362 0.0173438 12.0517 0.0510314C11.9672 0.0847189 11.8905 0.134084 11.8261 0.196279L5.26359 6.47966L2.17392 3.54714C2.10947 3.48494 2.03279 3.43557 1.94831 3.40189C1.86383 3.3682 1.77322 3.35086 1.6817 3.35086C1.59018 3.35086 1.49957 3.3682 1.41509 3.40189C1.33061 3.43557 1.25393 3.48494 1.18948 3.54714L0.20503 4.48961C0.0735384 4.61939 0 4.79309 0 4.97389C0 5.1547 0.0735384 5.3284 0.20503 5.45818L4.7441 9.80371Z" fill="black"/>
</svg>
