<svg width="22" height="23" viewBox="0 0 22 23" fill="none" xmlns="http://www.w3.org/2000/svg">
<path d="M19.5312 0.6875H2.34375C1.02539 0.6875 0 1.76172 0 3.03125V20.2188C0 21.5371 1.02539 22.5625 2.34375 22.5625H19.5312C20.8008 22.5625 21.875 21.5371 21.875 20.2188V3.03125C21.875 1.76172 20.8008 0.6875 19.5312 0.6875ZM8.69141 11.9668C4.24805 8.74414 4.29688 8.74414 3.125 7.81641V6.54688C3.125 5.91211 3.61328 5.375 4.29688 5.375H17.5781C18.2129 5.375 18.75 5.91211 18.75 6.54688V7.81641C17.5293 8.74414 17.5781 8.74414 13.1348 11.9668C12.6465 12.3086 11.6211 13.2363 10.9375 13.1875C10.2051 13.2363 9.17969 12.3086 8.69141 11.9668ZM18.75 9.76953V16.7031C18.75 17.3867 18.2129 17.875 17.5781 17.875H4.29688C3.61328 17.875 3.125 17.3867 3.125 16.7031V9.76953C3.75977 10.3066 4.73633 11.0391 7.76367 13.1875C8.44727 13.7246 9.61914 14.7988 10.8887 14.75C12.207 14.7988 13.4277 13.6758 14.0625 13.1875C17.0898 11.0391 18.0664 10.3066 18.75 9.76953Z" fill="#1B9EFF"/>
</svg>
