<svg width="29" height="22" viewBox="0 0 29 22" fill="none" xmlns="http://www.w3.org/2000/svg">
<path d="M28.4336 7.44336C27.1309 8.46289 25.4883 9.70898 19.7109 13.9004C18.5781 14.75 16.4824 16.6191 14.5 16.6191C12.4609 16.6191 10.4219 14.75 9.23242 13.9004C3.45508 9.70898 1.8125 8.46289 0.509766 7.44336C0.283203 7.27344 0 7.44336 0 7.72656V19.2812C0 20.8105 1.18945 22 2.71875 22H26.2812C27.7539 22 29 20.8105 29 19.2812V7.72656C29 7.44336 28.6602 7.27344 28.4336 7.44336ZM14.5 14.75C15.8027 14.8066 17.6719 13.1074 18.6348 12.4277C26.168 6.99023 26.7344 6.48047 28.4336 5.12109C28.7734 4.89453 29 4.49805 29 4.04492V2.96875C29 1.49609 27.7539 0.25 26.2812 0.25H2.71875C1.18945 0.25 0 1.49609 0 2.96875V4.04492C0 4.49805 0.169922 4.89453 0.509766 5.12109C2.20898 6.48047 2.77539 6.99023 10.3086 12.4277C11.2715 13.1074 13.1406 14.8066 14.5 14.75Z" fill="#1B9EFF"/>
</svg>
