<svg width="12" height="11" viewBox="0 0 12 11" fill="none" xmlns="http://www.w3.org/2000/svg">
<path d="M5.15278 1.07031C4.9184 1.30469 4.94184 1.65625 5.15278 1.89062L7.98871 4.5625H1.26215C0.934027 4.5625 0.699652 4.82031 0.699652 5.125V5.875C0.699652 6.20312 0.934027 6.4375 1.26215 6.4375H7.98871L5.15278 9.13281C4.94184 9.36719 4.94184 9.71875 5.15278 9.95312L5.6684 10.4688C5.90278 10.6797 6.25434 10.6797 6.46528 10.4688L11.0356 5.89844C11.2465 5.6875 11.2465 5.33594 11.0356 5.10156L6.46528 0.554688C6.25434 0.34375 5.90278 0.34375 5.6684 0.554688L5.15278 1.07031Z" fill="black"/>
</svg>
