<svg width="11" height="11" viewBox="0 0 11 11" fill="none" xmlns="http://www.w3.org/2000/svg">
<path d="M6.39764 9.92969C6.63201 9.69531 6.60858 9.34375 6.39764 9.10937L3.5617 6.4375L10.2883 6.4375C10.6164 6.4375 10.8508 6.17969 10.8508 5.875L10.8508 5.125C10.8508 4.79688 10.6164 4.5625 10.2883 4.5625L3.5617 4.5625L6.39764 1.86719C6.60858 1.63281 6.60858 1.28125 6.39764 1.04687L5.88201 0.53125C5.64764 0.320312 5.29608 0.320312 5.08514 0.53125L0.514826 5.10156C0.303889 5.3125 0.303888 5.66406 0.514826 5.89844L5.08514 10.4453C5.29608 10.6562 5.64764 10.6562 5.88201 10.4453L6.39764 9.92969Z" fill="black"/>
</svg>
