<svg width="19" height="19" viewBox="0 0 19 19" fill="none" xmlns="http://www.w3.org/2000/svg">
<path d="M1.16111 19L8.10139 12.0597C8.62917 12.5171 9.24491 12.8734 9.94861 13.1285C10.6523 13.3836 11.4 13.5111 12.1917 13.5111C14.0917 13.5111 15.7014 12.8514 17.0208 11.5319C18.3403 10.2125 19 8.62037 19 6.75556C19 4.89074 18.3403 3.29861 17.0208 1.97917C15.7014 0.659722 14.1005 0 12.2181 0C10.3532 0 8.76551 0.659722 7.45486 1.97917C6.14421 3.29861 5.48889 4.89074 5.48889 6.75556C5.48889 7.51204 5.61204 8.24213 5.85833 8.94583C6.10463 9.64954 6.47407 10.3093 6.96667 10.925L0 17.8389L1.16111 19ZM12.2181 11.9278C10.7931 11.9278 9.57917 11.422 8.57639 10.4104C7.57361 9.39884 7.07222 8.18056 7.07222 6.75556C7.07222 5.33056 7.57361 4.11227 8.57639 3.10069C9.57917 2.08912 10.7931 1.58333 12.2181 1.58333C13.6606 1.58333 14.8877 2.08912 15.8993 3.10069C16.9109 4.11227 17.4167 5.33056 17.4167 6.75556C17.4167 8.18056 16.9109 9.39884 15.8993 10.4104C14.8877 11.422 13.6606 11.9278 12.2181 11.9278Z" fill="#C4C4C4"/>
</svg>
