<svg width="20" height="21" viewBox="0 0 20 21" fill="none" xmlns="http://www.w3.org/2000/svg">
<path d="M9.6875 0.8125C4.33594 0.8125 0 5.14844 0 10.5C0 15.8516 4.33594 20.1875 9.6875 20.1875C15.0391 20.1875 19.375 15.8516 19.375 10.5C19.375 5.14844 15.0391 0.8125 9.6875 0.8125ZM9.6875 18.3125C5.35156 18.3125 1.875 14.8359 1.875 10.5C1.875 6.20312 5.35156 2.6875 9.6875 2.6875C13.9844 2.6875 17.5 6.20312 17.5 10.5C17.5 14.8359 13.9844 18.3125 9.6875 18.3125ZM12.9688 12.7266C12.1484 13.7031 10.9375 14.25 9.6875 14.25C8.39844 14.25 7.1875 13.7031 6.40625 12.7266C6.05469 12.3359 5.46875 12.2969 5.07812 12.6094C4.6875 12.9219 4.60938 13.5469 4.96094 13.9375C6.13281 15.3438 7.85156 16.125 9.6875 16.125C11.4844 16.125 13.2031 15.3438 14.375 13.9375C14.7266 13.5469 14.6875 12.9219 14.2578 12.6094C13.8672 12.2969 13.2812 12.3359 12.9688 12.7266ZM5.3125 8.74219C5.625 8.23438 6.05469 7.92188 6.5625 7.92188C7.03125 7.92188 7.46094 8.23438 7.77344 8.74219L8.16406 9.40625C8.24219 9.5625 8.39844 9.60156 8.51562 9.5625C8.63281 9.52344 8.75 9.40625 8.75 9.25C8.59375 7.60938 7.46094 6.4375 6.5625 6.4375C5.625 6.4375 4.49219 7.60938 4.375 9.25C4.33594 9.40625 4.45312 9.52344 4.57031 9.5625C4.72656 9.60156 4.88281 9.5625 4.96094 9.40625L5.3125 8.74219ZM12.8125 6.4375C11.875 6.4375 10.7422 7.60938 10.625 9.25C10.5859 9.40625 10.7031 9.52344 10.8203 9.5625C10.9766 9.60156 11.1328 9.5625 11.2109 9.40625L11.5625 8.74219C11.875 8.23438 12.3047 7.92188 12.8125 7.92188C13.2812 7.92188 13.7109 8.23438 14.0234 8.74219L14.4141 9.40625C14.4922 9.5625 14.6484 9.60156 14.7656 9.5625C14.8828 9.52344 15 9.40625 15 9.25C14.8438 7.60938 13.7109 6.4375 12.8125 6.4375Z" fill="black"/>
</svg>
