<svg width="19" height="18" viewBox="0 0 19 18" fill="none" xmlns="http://www.w3.org/2000/svg">
<path d="M18.023 6.04688L12.849 5.30859L10.51 0.632812C10.2974 0.210938 9.90754 0 9.48228 0C9.09246 0 8.70263 0.210938 8.49 0.632812L6.15105 5.30859L0.977005 6.04688C0.0556005 6.1875 -0.334225 7.3125 0.33911 7.98047L4.09561 11.6016L3.20964 16.6992C3.06789 17.4375 3.67034 18 4.34368 18C4.52087 18 4.69806 17.9648 4.87526 17.8945L9.48228 15.4688L14.1247 17.8945C14.3019 17.9648 14.4791 18 14.6563 18C15.3297 18 15.8967 17.4375 15.7904 16.6992L14.9044 11.6016L18.6609 7.98047C19.3342 7.3125 18.9444 6.1875 18.023 6.04688ZM13.6995 10.3711L13.0616 11.0039L13.2033 11.8828L13.9121 15.8555L10.2974 13.9922L9.48228 13.5703L9.51772 2.42578L11.3251 6.04688L11.7149 6.85547L12.6009 6.96094L16.6409 7.55859L13.6995 10.3711Z" fill="#EDC821"/>
</svg>
