<svg width="21" height="21" viewBox="0 0 21 21" fill="none" xmlns="http://www.w3.org/2000/svg">
<path d="M4.57917 16.3625H12.6V14.6125H4.57917V16.3625ZM4.57917 11.375H16.4208V9.625H4.57917V11.375ZM4.57917 6.3875H16.4208V4.6375H4.57917V6.3875ZM1.75 21C1.28333 21 0.875 20.825 0.525 20.475C0.175 20.125 0 19.7167 0 19.25V1.75C0 1.28333 0.175 0.875 0.525 0.525C0.875 0.175 1.28333 0 1.75 0H19.25C19.7167 0 20.125 0.175 20.475 0.525C20.825 0.875 21 1.28333 21 1.75V19.25C21 19.7167 20.825 20.125 20.475 20.475C20.125 20.825 19.7167 21 19.25 21H1.75ZM1.75 19.25H19.25V1.75H1.75V19.25ZM1.75 19.25V1.75V19.25Z" fill="#F2C811"/>
</svg>
