<svg width="18" height="24" viewBox="0 0 18 24" fill="none" xmlns="http://www.w3.org/2000/svg">
<path d="M15.75 24H2.25C1.63125 24 1.10156 23.765 0.660938 23.295C0.220313 22.825 0 22.26 0 21.6V2.4C0 1.74 0.220313 1.175 0.660938 0.705C1.10156 0.235 1.63125 0 2.25 0H11.25L18 7.2V21.6C18 22.26 17.7797 22.825 17.3391 23.295C16.8984 23.765 16.3687 24 15.75 24ZM10.125 8.4V2.4H2.25V21.6H15.75V8.4H10.125ZM2.25 8.4V2.4V21.6V8.4ZM4.5 13.2H13.5V10.8H4.5V13.2ZM4.5 16.8H13.5V14.4H4.5V16.8ZM4.5 20.4H10.125V18H4.5V20.4Z" fill="#F2C811"/>
</svg>
