<svg xmlns="http://www.w3.org/2000/svg" xmlns:xlink="http://www.w3.org/1999/xlink" width="589" height="102" viewBox="0 0 589 102">
  <defs>
    <clipPath id="clip-Drill_Down_Visuals_on_dark">
      <rect width="589" height="102"/>
    </clipPath>
  </defs>
  <g id="Drill_Down_Visuals_on_dark" data-name="Drill Down Visuals – on dark" clip-path="url(#clip-Drill_Down_Visuals_on_dark)">
    <g id="Group_4" data-name="Group 4">
      <g id="Group_2" data-name="Group 2" transform="translate(2 2.263)">
        <path id="Path_1" data-name="Path 1" d="M64.327,74.183H9.719A9.775,9.775,0,0,1,0,64.464V10.319A9.775,9.775,0,0,1,9.719.6H64.327a9.775,9.775,0,0,1,9.719,9.719V64.927C74.046,70.018,69.418,74.183,64.327,74.183Z" transform="translate(0 -0.6)" fill="red"/>
        <g id="Group_1" data-name="Group 1" transform="translate(8.941 13.528)">
          <path id="Path_2" data-name="Path 2" d="M44.36,35.348a14.267,14.267,0,0,1-4.628.463c-1.388,7.867-6.942,14.346-14.809,15.735C14.742,53.86,4.56,46.918,2.247,36.737A19.877,19.877,0,0,1,17.518,13.6a18.564,18.564,0,0,1,8.793.463,15.877,15.877,0,0,1,30.544,2.314,16.149,16.149,0,0,1-12.5,18.974ZM41.583,8.507A10.963,10.963,0,0,0,30.476,19.614v1.851a14.24,14.24,0,0,0-8.793-2.777A14.346,14.346,0,1,0,36.03,33.034a10.19,10.19,0,0,0-.463-3.7,13.125,13.125,0,0,0,6.016,1.851A11.261,11.261,0,0,0,52.69,20.076c0-6.016-5.091-11.57-11.107-11.57Z" transform="translate(-1.932 -3.523)" fill="#fff"/>
          <path id="Path_3" data-name="Path 3" d="M18.232,9.9A11.949,11.949,0,0,1,6.2,21.932V9.9H18.232Z" transform="translate(13.552 19.611)" fill="#fff"/>
        </g>
      </g>
      <path id="Path_5" data-name="Path 5" d="M13.33-20.677H2.356V0h4.03V-9.114H12.9v-3.472H6.386V-17.2H13.33ZM28.4-21.142c-6.51,0-11.036,4.526-11.036,10.819S21.886.465,28.4.465s11.036-4.5,11.036-10.788S34.906-21.142,28.4-21.142Zm0,17.949c-4.03,0-6.882-2.945-6.882-7.13s2.852-7.161,6.882-7.161,6.882,2.976,6.882,7.161S32.426-3.193,28.4-3.193ZM44.7-20.677V0h4.03V-8.308h.5L54.746,0h5.022L53.32-8.711a5.731,5.731,0,0,0,2.263-.9A5.647,5.647,0,0,0,58-14.477a5.873,5.873,0,0,0-2.046-4.65c-.961-.806-2.418-1.55-5.27-1.55Zm4.03,3.286h1.209c.744,0,3.906.031,3.906,3.1,0,3.038-3.193,3.131-3.968,3.131H48.732Zm32.86-3.286V0h4.03V-7.657h2.6a7.088,7.088,0,0,0,5.239-1.829,6.646,6.646,0,0,0,1.7-4.619A6.587,6.587,0,0,0,93.062-19.1c-1.519-1.333-3.131-1.581-5.456-1.581Zm4.03,3.472h1.395a4.853,4.853,0,0,1,2.852.651A2.848,2.848,0,0,1,91.016-14.2,3.086,3.086,0,0,1,89.9-11.78a4.124,4.124,0,0,1-2.635.651H85.622Zm24.118-3.937c-6.51,0-11.036,4.526-11.036,10.819S103.23.465,109.74.465s11.036-4.5,11.036-10.788S116.25-21.142,109.74-21.142Zm0,17.949c-4.03,0-6.882-2.945-6.882-7.13s2.852-7.161,6.882-7.161,6.882,2.976,6.882,7.161S113.77-3.193,109.74-3.193Zm29.326-9.92L143.592,0h3.038l7.657-20.677h-4.278L145.049-6.6l-4.774-14.26h-2.232L132.99-6.6l-4.619-14.074h-4.278L131.285,0h3.038Zm30.659-7.564h-11.47V0h11.47V-3.472h-7.44V-9.114h7.13v-3.472h-7.13V-17.2h7.44Zm5.456,0V0h4.03V-8.308h.5L185.225,0h5.022L183.8-8.711a5.731,5.731,0,0,0,2.263-.9,5.647,5.647,0,0,0,2.418-4.867,5.873,5.873,0,0,0-2.046-4.65c-.961-.806-2.418-1.55-5.27-1.55Zm4.03,3.286h1.209c.744,0,3.906.031,3.906,3.1,0,3.038-3.193,3.131-3.968,3.131h-1.147Zm32.86-3.286V0h6.944a7.588,7.588,0,0,0,5.239-1.674,5.526,5.526,0,0,0,1.767-4.185,5.276,5.276,0,0,0-1.488-3.875,4.859,4.859,0,0,0-2.7-1.3,4.417,4.417,0,0,0,2.325-4.061,5.378,5.378,0,0,0-1.922-4.278,8.139,8.139,0,0,0-5.053-1.3Zm4.03,3.286h1.178c1.643,0,3.1.713,3.1,2.6,0,2.635-2.511,2.7-3.131,2.7H216.1Zm0,8.4h1.488a6.572,6.572,0,0,1,2.759.4,2.475,2.475,0,0,1,1.519,2.356A2.664,2.664,0,0,1,220.6-3.844a5.5,5.5,0,0,1-2.759.558H216.1Zm15.19-11.687V0h4.03V-20.677Z" transform="translate(90.644 96.456)" fill="#fff"/>
      <path id="Path_4" data-name="Path 4" d="M19.032,0A22.1,22.1,0,0,0,34.648-6.161c3.965-3.965,5.307-8.723,5.307-14.091,0-4.392-.915-10.248-5.673-14.823-5.246-5.063-12.078-5.612-16.165-5.612H4.27V0ZM14.823-31.72h2.562c2.623,0,5.917.244,8.418,2.562,2.013,1.891,3.172,5.124,3.172,8.906,0,4.514-1.769,7.076-3.111,8.357-2.745,2.684-6.344,2.928-8.906,2.928H14.823ZM44.53,0h9.76V-11.651c0-1.464.122-4.331,2.2-6.222a6.4,6.4,0,0,1,4.453-1.464,8.61,8.61,0,0,1,4.209.976v-9.211c-1.281-.061-1.708-.122-1.952-.122a10.646,10.646,0,0,0-5.063,1.1,8.8,8.8,0,0,0-3.843,3.782v-4.453H44.53ZM68.259-27.267V0h9.76V-27.267Zm-.61-11.346a5.467,5.467,0,0,0,5.49,5.49,5.467,5.467,0,0,0,5.49-5.49,5.467,5.467,0,0,0-5.49-5.49A5.467,5.467,0,0,0,67.649-38.613Zm15.8-5.856V0h9.76V-44.469Zm15.189,0V0h9.76V-44.469ZM142.5,0a22.1,22.1,0,0,0,15.616-6.161c3.965-3.965,5.307-8.723,5.307-14.091,0-4.392-.915-10.248-5.673-14.823-5.246-5.063-12.078-5.612-16.165-5.612H127.734V0Zm-4.209-31.72h2.562c2.623,0,5.917.244,8.418,2.562,2.013,1.891,3.172,5.124,3.172,8.906,0,4.514-1.769,7.076-3.111,8.357-2.745,2.684-6.344,2.928-8.906,2.928h-2.135Zm45.018,11.834a6.716,6.716,0,0,1,4.331,1.769,6.623,6.623,0,0,1,1.891,4.453,6.016,6.016,0,0,1-1.891,4.331,6.2,6.2,0,0,1-4.331,1.83,6.237,6.237,0,0,1-4.392-1.83,6.3,6.3,0,0,1-1.891-4.331,6.289,6.289,0,0,1,1.891-4.453A6.745,6.745,0,0,1,183.305-19.886Zm16.348,6.222a13.477,13.477,0,0,0-4.209-10,17.225,17.225,0,0,0-12.2-4.514,17.025,17.025,0,0,0-12.139,4.514,13.477,13.477,0,0,0-4.209,10A13.608,13.608,0,0,0,171.105-3.6C174.887.122,179.279.915,183.244.915c4.392,0,8.6-.976,12.2-4.514A13.607,13.607,0,0,0,199.653-13.664Zm1.037-13.6L214.72,0h6.588l6.527-15.006L234.667,0h6.588l14.274-27.267H244.671l-6.832,14.823-6.893-14.823h-5.978l-6.893,14.4-6.466-14.4ZM257.664,0h9.76V-14.64a6.271,6.271,0,0,1,1.586-4.331,5.341,5.341,0,0,1,3.6-1.281,4.086,4.086,0,0,1,3.111,1.159c1.281,1.342,1.22,3.721,1.22,5.307V0h9.76V-17.324c0-2.989-.244-5.307-2.562-7.625a11.027,11.027,0,0,0-8.052-2.928,10.283,10.283,0,0,0-8.662,4.026v-3.416h-9.76Zm44.1-40.687L318.847,0h8.235l17.324-40.687H332.938l-9.882,24.766L313.3-40.687Zm44.774,13.42V0h9.76V-27.267Zm-.61-11.346a5.467,5.467,0,0,0,5.49,5.49,5.467,5.467,0,0,0,5.49-5.49,5.467,5.467,0,0,0-5.49-5.49A5.467,5.467,0,0,0,345.931-38.613ZM360.022-2.257A20.117,20.117,0,0,0,371,.915c2.257,0,6.893-.244,10.065-3.416a9.113,9.113,0,0,0,2.745-6.771,7.711,7.711,0,0,0-2.074-5.429,11.523,11.523,0,0,0-4.026-2.135l-1.769-.488c-1.525-.427-2.318-.427-3.233-.793a1.589,1.589,0,0,1-1.159-1.525,1.463,1.463,0,0,1,.854-1.342,4.121,4.121,0,0,1,2.257-.549,13.507,13.507,0,0,1,5.124,1.342l3.294-6.222a22.505,22.505,0,0,0-8.723-1.769c-4.026,0-7.686,1.159-9.76,3.294a9.744,9.744,0,0,0-2.562,6.649,6.6,6.6,0,0,0,1.769,4.7,8.773,8.773,0,0,0,4.758,2.379l2.562.61a6.087,6.087,0,0,1,2.562.976,1.448,1.448,0,0,1,.488,1.22,1.564,1.564,0,0,1-.488,1.281,4.139,4.139,0,0,1-2.5.732,12.7,12.7,0,0,1-3.782-.671,13.965,13.965,0,0,1-3.9-2.013Zm27.572-25.01v17.019a9.8,9.8,0,0,0,2.562,7.259c3.233,3.477,8.235,3.9,12.322,3.9,3.721,0,8.418-.366,11.773-3.843,2.44-2.5,2.623-5,2.623-7.32V-27.267h-9.76v15.25a5.057,5.057,0,0,1-1.4,3.843,4.564,4.564,0,0,1-3.477,1.159,5.043,5.043,0,0,1-3.416-1.037,5.229,5.229,0,0,1-1.464-3.965v-15.25Zm55.876,2.623a10.79,10.79,0,0,0-8.174-3.538,14.035,14.035,0,0,0-9.821,3.843,15.086,15.086,0,0,0-4.209,10.919,13.755,13.755,0,0,0,3.9,10A13.057,13.057,0,0,0,434.991.915a10.184,10.184,0,0,0,8.479-3.9V0h9.76V-27.267h-9.76Zm-5.978,4.758a6.248,6.248,0,0,1,4.392,1.769,6.031,6.031,0,0,1,1.891,4.453,5.92,5.92,0,0,1-1.83,4.392,6.258,6.258,0,0,1-4.392,1.891,6.853,6.853,0,0,1-4.392-1.83,6.289,6.289,0,0,1-1.891-4.453,6.38,6.38,0,0,1,1.952-4.453A6.237,6.237,0,0,1,437.492-19.886ZM458.72-44.469V0h9.76V-44.469ZM472.2-2.257A20.117,20.117,0,0,0,483.181.915c2.257,0,6.893-.244,10.065-3.416a9.113,9.113,0,0,0,2.745-6.771,7.711,7.711,0,0,0-2.074-5.429,11.523,11.523,0,0,0-4.026-2.135l-1.769-.488c-1.525-.427-2.318-.427-3.233-.793a1.589,1.589,0,0,1-1.159-1.525,1.463,1.463,0,0,1,.854-1.342,4.121,4.121,0,0,1,2.257-.549,13.507,13.507,0,0,1,5.124,1.342l3.294-6.222a22.506,22.506,0,0,0-8.723-1.769c-4.026,0-7.686,1.159-9.76,3.294a9.744,9.744,0,0,0-2.562,6.649,6.6,6.6,0,0,0,1.769,4.7,8.773,8.773,0,0,0,4.758,2.379l2.562.61a6.087,6.087,0,0,1,2.562.976,1.448,1.448,0,0,1,.488,1.22,1.564,1.564,0,0,1-.488,1.281,4.139,4.139,0,0,1-2.5.732,12.7,12.7,0,0,1-3.782-.671,13.965,13.965,0,0,1-3.9-2.013Z" transform="translate(88.73 62.19)" fill="#fff"/>
    </g>
  </g>
</svg>
