<svg id="Dril-down-visuals-logo" xmlns="http://www.w3.org/2000/svg" width="143" height="23.52" viewBox="0 0 143 23.52">
  <path id="Path_1" data-name="Path 1" d="M15.786,18.283H2.385A2.384,2.384,0,0,1,.7,17.572a2.444,2.444,0,0,1-.7-1.7V2.415A2.444,2.444,0,0,1,.7.711,2.384,2.384,0,0,1,2.385,0h13.4a2.384,2.384,0,0,1,1.682.711,2.444,2.444,0,0,1,.7,1.7V15.983A2.392,2.392,0,0,1,15.786,18.283Z" fill="red"/>
  <path id="Path_2" data-name="Path 2" d="M12.606,11.269a3.46,3.46,0,0,1-1.136.115,4.625,4.625,0,0,1-3.634,3.91,4.744,4.744,0,0,1-5.565-3.68,4.989,4.989,0,0,1,.721-3.645,4.878,4.878,0,0,1,3.027-2.1,4.5,4.5,0,0,1,2.158.115A3.937,3.937,0,0,1,9.723,4a3.859,3.859,0,0,1,4.715.362,3.956,3.956,0,0,1,1.234,2.2,4.053,4.053,0,0,1-.576,3A3.962,3.962,0,0,1,12.6,11.27ZM11.924,4.6a2.661,2.661,0,0,0-1.049.2,2.688,2.688,0,0,0-.889.6A2.742,2.742,0,0,0,9.2,7.359v.46a3.465,3.465,0,0,0-2.158-.69,3.49,3.49,0,0,0-1.956.6,3.555,3.555,0,0,0-1.3,1.6,3.6,3.6,0,0,0,.763,3.885,3.5,3.5,0,0,0,5.416-.54,3.6,3.6,0,0,0,.593-1.98,2.561,2.561,0,0,0-.114-.919,3.192,3.192,0,0,0,1.476.46,2.747,2.747,0,0,0,1.917-.819,2.816,2.816,0,0,0,.809-1.941A2.885,2.885,0,0,0,11.924,4.6Z" fill="#fff"/>
  <path id="Path_3" data-name="Path 3" d="M9.994,10.694a3,3,0,0,1-.219,1.147,2.971,2.971,0,0,1-.64.973,2.914,2.914,0,0,1-2.094.87v-2.99Z" fill="#fff"/>
  <path id="Path_4" data-name="Path 4" d="M25.024,18.266H22.331V23.4h.989V21.139h1.6v-.863h-1.6V19.13h1.7Zm3.7-.115a2.684,2.684,0,1,0,2.708,2.688A2.591,2.591,0,0,0,28.722,18.151Zm0,4.46a1.662,1.662,0,0,1-1.689-1.772,1.691,1.691,0,1,1,3.378,0A1.662,1.662,0,0,1,28.722,22.611Zm4-4.344V23.4h.989V21.34h.123L35.188,23.4H36.42L34.838,21.24a1.353,1.353,0,0,0,1.005-.751,1.419,1.419,0,0,0,.144-.681,1.475,1.475,0,0,0-.121-.635,1.459,1.459,0,0,0-.381-.52,1.851,1.851,0,0,0-1.293-.385Zm.989.816h.3c.183,0,.959.008.959.77s-.784.778-.974.778h-.281Zm8.064-.816V23.4h.989V21.5H43.4a1.727,1.727,0,0,0,1.286-.454,1.821,1.821,0,0,0,.292-1.824,1.637,1.637,0,0,0-.389-.564,1.8,1.8,0,0,0-1.339-.393Zm.989.863h.342a1.178,1.178,0,0,1,.7.162.705.705,0,0,1,.211.258.716.716,0,0,1,.071.327.777.777,0,0,1-.069.332.766.766,0,0,1-.2.269,1,1,0,0,1-.647.162h-.4Zm5.919-.978a2.684,2.684,0,1,0,2.709,2.688,2.591,2.591,0,0,0-2.709-2.688Zm0,4.46a1.662,1.662,0,0,1-1.689-1.772,1.691,1.691,0,1,1,3.378,0,1.661,1.661,0,0,1-1.688,1.772Zm7.2-2.465L56.991,23.4h.745l1.879-5.138h-1.05l-1.217,3.5-1.172-3.543h-.548l-1.24,3.543-1.134-3.5h-1.05L53.97,23.4h.745ZM63.4,18.266H60.588V23.4H63.4v-.863H61.577v-1.4h1.75v-.863h-1.75V19.13H63.4Zm1.339,0V23.4h.989V21.34h.123L67.207,23.4H68.44L66.857,21.24a1.353,1.353,0,0,0,1.005-.751,1.418,1.418,0,0,0,.144-.682,1.474,1.474,0,0,0-.121-.635,1.457,1.457,0,0,0-.381-.52,1.851,1.851,0,0,0-1.293-.385Zm.989.816h.3c.183,0,.959.008.959.77s-.784.778-.974.778h-.281Zm8.064-.816V23.4h1.7a1.847,1.847,0,0,0,1.286-.416,1.375,1.375,0,0,0,.327-.473,1.39,1.39,0,0,0,.106-.567,1.319,1.319,0,0,0-.365-.963,1.187,1.187,0,0,0-.663-.323,1.09,1.09,0,0,0,.428-.422,1.108,1.108,0,0,0,.143-.587,1.35,1.35,0,0,0-.115-.586,1.334,1.334,0,0,0-.356-.477,1.979,1.979,0,0,0-1.24-.323Zm.989.816h.289c.4,0,.761.177.761.646a.675.675,0,0,1-.768.671h-.281Zm0,2.087h.365a1.6,1.6,0,0,1,.677.1.61.61,0,0,1,.276.234.621.621,0,0,1,.1.351.669.669,0,0,1-.075.34.658.658,0,0,1-.235.254,1.335,1.335,0,0,1-.677.139h-.427Zm3.728-2.9V23.4H79.5V18.266Z"/>
  <path id="Path_5" data-name="Path 5" d="M25.954,14.89a5.388,5.388,0,0,0,3.832-1.531,4.7,4.7,0,0,0,1.3-3.5A4.971,4.971,0,0,0,29.7,6.175a5.525,5.525,0,0,0-3.967-1.394h-3.4V14.89ZM24.921,7.009h.629a2.884,2.884,0,0,1,2.066.637,3.044,3.044,0,0,1,.778,2.213,2.772,2.772,0,0,1-.764,2.076,2.958,2.958,0,0,1-2.185.727h-.524Zm7.29,7.881h2.4V12a2.058,2.058,0,0,1,.54-1.546,1.558,1.558,0,0,1,1.093-.364,2.09,2.09,0,0,1,1.033.243V8.039c-.314-.015-.419-.03-.479-.03a2.586,2.586,0,0,0-1.243.273,2.173,2.173,0,0,0-.943.94V8.115h-2.4Zm5.823-6.775V14.89h2.4V8.115ZM37.884,5.3a1.373,1.373,0,0,0,.1.523,1.358,1.358,0,0,0,.292.443,1.341,1.341,0,0,0,1.909,0,1.38,1.38,0,0,0,0-1.932,1.341,1.341,0,0,0-.438-.3,1.341,1.341,0,0,0-1.471.3,1.358,1.358,0,0,0-.292.443A1.373,1.373,0,0,0,37.884,5.3Zm3.877-1.455V14.89h2.4V3.841Zm3.727,0V14.89h2.4V3.841ZM56.253,14.89a5.388,5.388,0,0,0,3.832-1.531,4.694,4.694,0,0,0,1.3-3.5A4.971,4.971,0,0,0,60,6.175a5.525,5.525,0,0,0-3.967-1.394h-3.4V14.89ZM55.22,7.009h.629a2.884,2.884,0,0,1,2.066.637,3.044,3.044,0,0,1,.778,2.213,2.772,2.772,0,0,1-.763,2.076,2.958,2.958,0,0,1-2.186.727H55.22Zm11.047,2.94a1.637,1.637,0,0,1,1.063.44,1.656,1.656,0,0,1,.464,1.106,1.511,1.511,0,0,1-.123.586,1.494,1.494,0,0,1-.341.49,1.487,1.487,0,0,1-2.141,0,1.53,1.53,0,0,1,0-2.182,1.644,1.644,0,0,1,1.077-.44Zm4.012,1.546a3.386,3.386,0,0,0-.259-1.352,3.35,3.35,0,0,0-.774-1.132,4.2,4.2,0,0,0-2.994-1.122A4.148,4.148,0,0,0,63.273,9.01a3.35,3.35,0,0,0-.774,1.132,3.385,3.385,0,0,0-.259,1.352,3.419,3.419,0,0,0,.258,1.36A3.384,3.384,0,0,0,63.272,14a4.536,4.536,0,0,0,5.973,0,3.382,3.382,0,0,0,.775-1.141,3.418,3.418,0,0,0,.258-1.36Zm.254-3.379,3.442,6.774h1.617l1.6-3.729L78.87,14.89h1.617l3.5-6.775H81.326L79.649,11.8,77.957,8.115H76.49L74.8,11.693,73.212,8.115Zm13.98,6.774h2.4V11.252a1.57,1.57,0,0,1,.389-1.076,1.3,1.3,0,0,1,.883-.318.992.992,0,0,1,.412.062,1,1,0,0,1,.352.226,1.964,1.964,0,0,1,.3,1.319V14.89h2.4v-4.3a2.353,2.353,0,0,0-.629-1.895,2.687,2.687,0,0,0-1.976-.728A2.5,2.5,0,0,0,87.85,8.2a2.529,2.529,0,0,0-.941.765V8.115h-2.4ZM95.336,4.781,99.528,14.89h2.021L105.8,4.781h-2.814l-2.425,6.154L98.167,4.781Zm10.988,3.334V14.89h2.4V8.115Zm-.15-2.819a1.366,1.366,0,0,0,.393.966,1.336,1.336,0,0,0,.438.3,1.355,1.355,0,0,0,1.033,0,1.353,1.353,0,0,0,.729-.739,1.4,1.4,0,0,0,0-1.046,1.338,1.338,0,0,0-1.246-.841,1.335,1.335,0,0,0-.954.4,1.371,1.371,0,0,0-.392.966Zm3.458,9.033a4.893,4.893,0,0,0,2.694.788,3.45,3.45,0,0,0,2.47-.849,2.265,2.265,0,0,0,.511-.77,2.3,2.3,0,0,0,.163-.913,1.927,1.927,0,0,0-.509-1.349,2.813,2.813,0,0,0-.988-.53l-.434-.121c-.374-.106-.569-.106-.793-.2a.388.388,0,0,1-.205-.141.392.392,0,0,1-.08-.238.373.373,0,0,1,.056-.2.361.361,0,0,1,.154-.135,1,1,0,0,1,.554-.136,3.282,3.282,0,0,1,1.257.333l.808-1.546a5.46,5.46,0,0,0-2.14-.44,3.353,3.353,0,0,0-2.4.818,2.438,2.438,0,0,0-.629,1.652,1.652,1.652,0,0,0,.434,1.168,2.141,2.141,0,0,0,1.168.591l.628.152a1.486,1.486,0,0,1,.629.243.362.362,0,0,1,.12.3.393.393,0,0,1-.024.173.374.374,0,0,1-.1.145,1.007,1.007,0,0,1-.613.182,3.082,3.082,0,0,1-.928-.167,3.406,3.406,0,0,1-.958-.5ZM116.4,8.115v4.229a2.455,2.455,0,0,0,.628,1.8,3.957,3.957,0,0,0,3.024.969,3.789,3.789,0,0,0,2.889-.955,2.342,2.342,0,0,0,.644-1.819V8.115h-2.395V11.9a1.283,1.283,0,0,1-.072.514,1.269,1.269,0,0,1-.272.441,1.117,1.117,0,0,1-.4.234,1.1,1.1,0,0,1-.456.054,1.226,1.226,0,0,1-.838-.258,1.294,1.294,0,0,1-.283-.454,1.331,1.331,0,0,1-.077-.531V8.115Zm13.712.652a2.658,2.658,0,0,0-.91-.659,2.616,2.616,0,0,0-1.1-.22,3.419,3.419,0,0,0-2.41.955,3.773,3.773,0,0,0-1.033,2.713,3.465,3.465,0,0,0,.229,1.341,3.414,3.414,0,0,0,.728,1.144,3.185,3.185,0,0,0,2.411,1.077,2.472,2.472,0,0,0,1.156-.229,2.511,2.511,0,0,0,.925-.74v.742h2.4V8.115h-2.4Zm-1.467,1.182a1.521,1.521,0,0,1,1.077.44,1.579,1.579,0,0,1,.353,1.7,1.459,1.459,0,0,1-.338.5,1.524,1.524,0,0,1-1.077.47,1.669,1.669,0,0,1-1.078-.455,1.565,1.565,0,0,1-.342-.506,1.524,1.524,0,0,1,.357-1.707A1.52,1.52,0,0,1,128.644,9.949Zm5.209-6.108V14.89h2.4V3.841Zm3.308,10.488a4.891,4.891,0,0,0,2.7.788,3.453,3.453,0,0,0,2.47-.849A2.282,2.282,0,0,0,143,12.586a1.927,1.927,0,0,0-.509-1.349,2.812,2.812,0,0,0-.988-.53l-.434-.121c-.374-.106-.569-.106-.793-.2a.388.388,0,0,1-.2-.141.4.4,0,0,1-.08-.238.373.373,0,0,1,.056-.2.366.366,0,0,1,.154-.135,1,1,0,0,1,.554-.136,3.282,3.282,0,0,1,1.257.333l.808-1.546a5.46,5.46,0,0,0-2.14-.44,3.353,3.353,0,0,0-2.4.818,2.438,2.438,0,0,0-.629,1.652,1.652,1.652,0,0,0,.434,1.168,2.148,2.148,0,0,0,1.168.591l.629.152a1.477,1.477,0,0,1,.628.243.362.362,0,0,1,.12.3.393.393,0,0,1-.024.173.374.374,0,0,1-.1.145,1.007,1.007,0,0,1-.613.182,3.082,3.082,0,0,1-.928-.167,3.414,3.414,0,0,1-.957-.5Z"/>
</svg>
