<svg width="21" height="20" viewBox="0 0 21 20" fill="none" xmlns="http://www.w3.org/2000/svg">
<path d="M1.5625 19.8749C1.14583 19.8749 0.78125 19.7187 0.46875 19.4062C0.15625 19.0937 0 18.7291 0 18.3124V5.47388C0 5.05721 0.15625 4.69263 0.46875 4.38013C0.78125 4.06763 1.14583 3.91138 1.5625 3.91138H6.51042V1.64575C6.51042 1.22909 6.66667 0.864502 6.97917 0.552002C7.29167 0.239502 7.65625 0.083252 8.07292 0.083252H12.7604C13.1771 0.083252 13.5417 0.239502 13.8542 0.552002C14.1667 0.864502 14.3229 1.22909 14.3229 1.64575V3.91138H19.2708C19.6875 3.91138 20.0521 4.06763 20.3646 4.38013C20.6771 4.69263 20.8333 5.05721 20.8333 5.47388V18.3124C20.8333 18.7291 20.6771 19.0937 20.3646 19.4062C20.0521 19.7187 19.6875 19.8749 19.2708 19.8749H1.5625ZM8.07292 3.91138H12.7604V1.64575H8.07292V3.91138ZM1.5625 18.3124H19.2708V5.47388H1.5625V18.3124ZM1.5625 18.3124V5.47388V18.3124Z" fill="#F3C912"/>
</svg>
