<svg width="64" height="65" viewBox="0 0 64 65" fill="none" xmlns="http://www.w3.org/2000/svg">
<path d="M64.0009 31.0254V34.784C63.9492 35.2147 63.8944 35.6454 63.8442 36.0776C63.2789 41.3507 61.586 46.2307 58.5901 50.6079C53.4503 58.1174 46.414 62.7812 37.4359 64.4334C36.2535 64.6511 35.0508 64.7655 33.859 64.9268H30.1005C29.0293 64.7921 27.9534 64.6934 26.89 64.5149C20.2249 63.3904 14.4195 60.5072 9.63836 55.7447C2.45486 48.5532 -0.760246 39.8378 0.151199 29.7052C0.668569 23.5511 3.07156 17.7064 7.03245 12.9682C14.3256 4.1605 23.7329 0.126223 35.1525 1.05805C40.4348 1.48873 45.3053 3.29288 49.6824 6.28883C57.1916 11.4288 61.8538 18.4668 63.5075 27.4468C63.7252 28.6308 63.8442 29.832 64.0009 31.0254ZM28.1554 47.4272L51.3941 26.2958L46.3436 20.7486L28.348 37.1065L19.4795 28.2315L14.2269 33.4857L28.1554 47.4272Z" fill="url(#paint0_linear_90_830)"/>
<defs>
<linearGradient id="paint0_linear_90_830" x1="64.001" y1="0.92651" x2="0.00694629" y2="64.9265" gradientUnits="userSpaceOnUse">
<stop stop-color="#B742FE"/>
<stop offset="1" stop-color="#2996FF"/>
</linearGradient>
</defs>
</svg>
