<svg width="21" height="21" viewBox="0 0 21 21" fill="none" xmlns="http://www.w3.org/2000/svg">
<path d="M5.25 1.575V0H15.75V1.575H5.25ZM1.81125 4.725V3.15H19.1887V4.725H1.81125ZM1.575 21C1.155 21 0.7875 20.8425 0.4725 20.5275C0.1575 20.2125 0 19.845 0 19.425V7.875C0 7.455 0.1575 7.0875 0.4725 6.7725C0.7875 6.4575 1.155 6.3 1.575 6.3H19.425C19.845 6.3 20.2125 6.4575 20.5275 6.7725C20.8425 7.0875 21 7.455 21 7.875V19.425C21 19.845 20.8425 20.2125 20.5275 20.5275C20.2125 20.8425 19.845 21 19.425 21H1.575ZM1.575 19.425H19.425V7.875H1.575V19.425ZM8.58375 17.5612L14.385 13.65L8.58375 9.765V17.5612ZM1.575 7.875V19.425V7.875Z" fill="#F2C811"/>
</svg>
